<svg width="33" height="32" viewBox="0 0 33 32" fill="none" xmlns="http://www.w3.org/2000/svg">
<mask id="mask0_201_8643" style="mask-type:luminance" maskUnits="userSpaceOnUse" x="0" y="0" width="33" height="32">
<path d="M0.5 1.90735e-06H32.5V32H0.5V1.90735e-06Z" fill="white"/>
</mask>
<g mask="url(#mask0_201_8643)">
<path d="M1.87769 31.5312H31.1206C31.6219 31.5312 32.0312 31.1219 32.0312 30.6206V29.9296C32.0312 29.4301 31.6219 29.0191 31.1206 29.0191H1.87769C1.37806 29.0191 0.96875 29.4301 0.96875 29.9296V30.6206C0.96875 31.1219 1.37806 31.5312 1.87769 31.5312Z" stroke="#171D19" stroke-miterlimit="10" stroke-linecap="round" stroke-linejoin="round"/>
<path d="M8.27867 12.4522H3.84949C3.34986 12.4522 2.94067 12.8614 2.94067 13.3629V14.3568H30.0593V13.3629C30.0593 12.8614 29.6501 12.4522 29.1487 12.4522H24.7196" stroke="#171D19" stroke-miterlimit="10" stroke-linecap="round" stroke-linejoin="round"/>
<path d="M1.87769 18.0808H31.1206C31.6219 18.0808 32.0312 17.6715 32.0312 17.1702V15.2656C32.0312 14.766 31.6219 14.3568 31.1206 14.3568H1.87769C1.37806 14.3568 0.96875 14.766 0.96875 15.2656V17.1702C0.96875 17.6715 1.37806 18.0808 1.87769 18.0808Z" stroke="#171D19" stroke-miterlimit="10" stroke-linecap="round" stroke-linejoin="round"/>
<path d="M11.8485 7.318C13.1808 6.43394 14.7806 5.92019 16.4991 5.92019C21.1586 5.92019 24.9357 9.69737 24.9357 14.3568H8.0625C8.0625 12.1794 8.88806 10.1952 10.2417 8.69994" stroke="#171D19" stroke-miterlimit="10" stroke-linecap="round" stroke-linejoin="round"/>
<path d="M1.87769 22.4887V18.0809H31.1206V29.019H1.87769V24.6111" stroke="#171D19" stroke-miterlimit="10" stroke-linecap="round" stroke-linejoin="round"/>
<path d="M16.499 5.92017V0.468729" stroke="#171D19" stroke-miterlimit="10" stroke-linecap="round" stroke-linejoin="round"/>
<path d="M16.499 0.468767H22.1186L21.1372 2.0952L22.1186 3.72327H16.499V0.468767Z" stroke="#171D19" stroke-miterlimit="10" stroke-linecap="round" stroke-linejoin="round"/>
<path d="M14.8001 29.019V22.7101C14.8001 21.6419 13.9267 20.7684 12.8602 20.7684C11.792 20.7684 10.9186 21.6419 10.9186 22.7101V29.019H14.8001ZM21.7168 29.019V22.7101C21.7168 21.6419 20.8433 20.7684 19.775 20.7684C18.7085 20.7684 17.8351 21.6419 17.8351 22.7101V29.019H21.7168ZM28.6333 29.019V22.7101C28.6333 21.6419 27.7598 20.7684 26.6915 20.7684C25.625 20.7684 24.7498 21.6419 24.7498 22.7101V29.019H28.6333ZM7.88545 29.019V22.7101C7.88545 21.6419 7.0102 20.7684 5.9437 20.7684C4.87533 20.7684 4.00195 21.6419 4.00195 22.7101V29.019H7.88545Z" stroke="#171D19" stroke-miterlimit="10" stroke-linecap="round" stroke-linejoin="round"/>
</g>
</svg>
