<svg width="33" height="32" viewBox="0 0 33 32" fill="none" xmlns="http://www.w3.org/2000/svg">
<g clip-path="url(#clip0_201_8803)">
<path d="M30.2328 21.6355L30.2962 21.603L30.3629 21.5651C30.4162 21.5342 30.4696 21.5043 30.5336 21.4654C31.7239 20.6962 32.4576 19.3888 32.4941 17.972C32.4984 17.9366 32.5003 17.901 32.5 17.8654C32.4974 15.7033 30.88 13.8839 28.733 13.6281C28.4783 11.7793 26.8996 10.4012 25.0333 10.3987C24.9565 10.3987 24.8803 10.3987 24.8051 10.4051C23.8745 6.76034 20.6604 4.15954 16.9016 4.00994C16.6248 3.99821 16.3629 3.99874 16.0803 4.00994C12.3267 4.16834 9.12129 6.76947 8.19335 10.4099C6.36249 10.5489 4.82363 11.8389 4.36723 13.6174C2.17643 13.8259 0.502503 15.6647 0.500037 17.8654C0.499703 17.901 0.501637 17.9366 0.505903 17.972C0.54737 19.683 1.6063 21.204 3.19656 21.8366C2.97317 23.2326 3.9239 24.5455 5.31996 24.7688C5.48963 24.796 5.66163 24.806 5.83336 24.7987H16.5C16.5017 26.5653 17.9334 27.997 19.7 27.9987H28.7666C30.2394 27.997 31.4319 26.8016 31.4301 25.3288C31.4288 24.221 30.7426 23.2293 29.7064 22.8376C29.6185 22.5362 29.4856 22.2498 29.3122 21.988C29.508 21.9386 29.7003 21.876 29.8877 21.8008C30.0055 21.7518 30.1207 21.6966 30.2328 21.6355ZM16.6867 23.732H5.83336C4.94969 23.732 4.23336 23.0157 4.23336 22.132C4.23336 21.2484 4.94969 20.532 5.83336 20.532C5.97136 20.5332 6.10876 20.551 6.24242 20.5854C6.52816 20.6568 6.81776 20.4832 6.88922 20.1974C6.90589 20.1309 6.90949 20.0618 6.90002 19.9939C6.90269 19.1121 7.61822 18.3987 8.50002 18.3987C8.63975 18.3981 8.77889 18.416 8.91389 18.452C9.19795 18.5299 9.49135 18.3628 9.56928 18.0788C9.57742 18.0491 9.58302 18.0187 9.58589 17.988C9.80915 15.6423 11.8918 13.9216 14.2376 14.1449C16.4299 14.3535 18.1033 16.1965 18.1 18.3987V18.468C18.0999 18.7626 18.3385 19.0015 18.6331 19.0016C18.6821 19.0016 18.7308 18.9949 18.7779 18.9816C18.9045 18.947 19.0354 18.9303 19.1667 18.932C20.0503 18.932 20.7667 19.6484 20.7667 20.532C20.7667 20.556 20.7619 20.5784 20.7603 20.6019C20.4689 20.8986 20.2297 21.2422 20.0525 21.6184C19.9355 21.6052 19.8178 21.5986 19.7 21.5987C18.3452 21.6002 17.1382 22.4548 16.6867 23.732ZM30.3666 25.332C30.3666 26.2157 29.6503 26.932 28.7666 26.932H19.7C18.5218 26.933 17.5659 25.9786 17.565 24.8004C17.5641 23.6222 18.5185 22.6663 19.6967 22.6654C19.8835 22.6652 20.0695 22.6896 20.2499 22.7379C20.5251 22.8118 20.8098 22.6563 20.8963 22.3848C21.3455 20.9822 22.8466 20.2093 24.2492 20.6584C24.7382 20.815 25.1717 21.1095 25.4974 21.5064C25.6316 21.6687 25.8486 21.7368 26.0515 21.6803C27.1906 21.3623 28.3718 22.028 28.6897 23.167C28.7067 23.228 28.721 23.2896 28.7326 23.3518C28.7693 23.5614 28.9272 23.729 29.1342 23.7784C29.8561 23.9468 30.3669 24.5906 30.3666 25.332ZM29.7501 20.684C29.6636 20.7317 29.5746 20.7746 29.4834 20.8126C29.2628 20.904 29.0331 20.9716 28.7981 21.0142C28.7301 21.028 28.6614 21.0379 28.5922 21.044C28.5714 21.044 28.5505 21.0456 28.5298 21.0488C28.4765 21.0552 28.4274 21.0547 28.3762 21.0574C27.7032 20.614 26.887 20.4425 26.0925 20.5774C24.9519 19.4156 23.188 19.1312 21.74 19.8755C21.4407 18.6972 20.3823 17.8705 19.1667 17.8654H19.14C18.8475 14.9345 16.2345 12.7955 13.3035 13.0879C10.9768 13.3201 9.07262 15.0407 8.60669 17.332C7.30169 17.2866 6.15349 18.1872 5.88669 19.4654C4.91383 19.4554 4.0117 19.9727 3.52883 20.8174C2.35863 20.3257 1.59057 19.1878 1.57203 17.9187C1.5717 17.8957 1.5699 17.8727 1.5667 17.8499C1.5825 16.0753 3.03396 14.6495 4.80856 14.6654C4.80883 14.6654 4.80909 14.6654 4.80936 14.6654C5.07503 14.6653 5.30016 14.4698 5.33736 14.2067C5.56716 12.6358 6.91236 11.4698 8.50002 11.4654C8.52115 11.4643 8.54235 11.4643 8.56349 11.4654C8.84442 11.4999 9.10335 11.3088 9.15335 11.0302C9.82308 7.67274 12.7057 5.21121 16.1267 5.07554C16.3731 5.06541 16.6104 5.06488 16.8541 5.07554C20.3039 5.20274 23.2085 7.69607 23.8568 11.0867C23.9067 11.377 24.1825 11.5719 24.4728 11.5219C24.4785 11.5209 24.4842 11.5199 24.4899 11.5187C24.6688 11.4827 24.8509 11.4649 25.0333 11.4654C26.5053 11.4671 27.6982 12.6601 27.7 14.1321C27.7 14.4266 27.9388 14.6654 28.2333 14.6654C29.9937 14.668 31.4224 16.0901 31.4333 17.8504C31.4294 17.8784 31.4276 17.9065 31.428 17.9347C31.4062 18.9996 30.8578 19.9843 29.964 20.5635C29.9234 20.5886 29.8824 20.611 29.8402 20.635L29.7501 20.684Z" fill="#171D19"/>
</g>
<defs>
<clipPath id="clip0_201_8803">
<rect width="32" height="32" fill="white" transform="translate(0.5)"/>
</clipPath>
</defs>
</svg>
