<svg width="33" height="32" viewBox="0 0 33 32" fill="none" xmlns="http://www.w3.org/2000/svg">
<g clip-path="url(#clip0_201_8786)">
<path d="M1.31282 21.5632C6.43801 22.7816 14.0144 25.5632 21.0032 31.8964C21.0798 31.9657 21.1759 31.9999 21.2716 31.9999C21.3806 31.9999 21.4892 31.9556 21.5683 31.8685C21.7165 31.7048 21.704 31.4519 21.5403 31.3034C14.4257 24.8564 6.71418 22.0249 1.49798 20.7851C1.28255 20.7329 1.06712 20.8667 1.01634 21.0816C0.965165 21.2966 1.09798 21.5122 1.31282 21.5632Z" fill="#171D19"/>
<path d="M1.30567 25.8369C5.28984 26.864 9.25273 28.9629 12.766 31.9066C12.8408 31.9693 12.932 32 13.0226 32C13.1369 32 13.2504 31.9513 13.3295 31.8568C13.4713 31.6875 13.449 31.4353 13.2797 31.2933C9.67578 28.2736 5.6043 26.1189 1.50528 25.0623C1.29122 25.0072 1.07344 25.1359 1.01817 25.3498C0.962896 25.5637 1.0918 25.7818 1.30567 25.8369Z" fill="#171D19"/>
<path d="M19.8459 6.629C19.8459 5.06279 18.5717 3.78857 17.0057 3.78857C15.4393 3.78857 14.165 5.06279 14.165 6.629C14.165 8.19521 15.4393 9.46943 17.0057 9.46943C18.5717 9.46943 19.8459 8.19521 19.8459 6.629ZM17.0057 8.66943C15.8805 8.66943 14.965 7.754 14.965 6.629C14.965 5.504 15.8805 4.58857 17.0057 4.58857C18.1307 4.58857 19.0459 5.504 19.0459 6.629C19.0459 7.754 18.1307 8.66943 17.0057 8.66943Z" fill="#171D19"/>
<path d="M17.4055 2.17344V0.4C17.4055 0.179101 17.2264 0 17.0055 0C16.7846 0 16.6055 0.179101 16.6055 0.4V2.17344C16.6055 2.39433 16.7846 2.57343 17.0055 2.57343C17.2264 2.57343 17.4055 2.39433 17.4055 2.17344Z" fill="#171D19"/>
<path d="M14.4312 2.97048C14.5055 3.0988 14.6398 3.17048 14.7781 3.17048C14.8459 3.17048 14.9148 3.15329 14.9777 3.11696C15.1691 3.00641 15.2346 2.76169 15.1242 2.57048L14.2373 1.03454C14.1268 0.84333 13.8818 0.777119 13.6908 0.888057C13.4994 0.998603 13.434 1.24333 13.5443 1.43454L14.4312 2.97048Z" fill="#171D19"/>
<path d="M13.347 4.05467L11.811 3.16795C11.6188 3.05741 11.3749 3.12303 11.2645 3.31444C11.1542 3.50585 11.2196 3.75038 11.411 3.86092L12.947 4.74764C13.0101 4.78397 13.0788 4.80116 13.1466 4.80116C13.2849 4.80116 13.4192 4.72948 13.4935 4.60116C13.6038 4.40975 13.5384 4.16522 13.347 4.05467Z" fill="#171D19"/>
<path d="M10.3765 6.62888C10.3765 6.84978 10.5556 7.02888 10.7765 7.02888H12.5501C12.771 7.02888 12.9501 6.84978 12.9501 6.62888C12.9501 6.40798 12.771 6.22888 12.5501 6.22888H10.7765C10.5556 6.22888 10.3765 6.40798 10.3765 6.62888Z" fill="#171D19"/>
<path d="M11.6114 10.1434C11.6792 10.1434 11.7479 10.1262 11.811 10.0899L13.347 9.20318C13.5384 9.09263 13.6038 8.8481 13.4935 8.6567C13.3827 8.4651 13.1384 8.39927 12.947 8.51021L11.411 9.39693C11.2196 9.50748 11.1542 9.75201 11.2645 9.94341C11.3388 10.0717 11.4731 10.1434 11.6114 10.1434Z" fill="#171D19"/>
<path d="M13.6908 12.37C13.7537 12.4063 13.8227 12.4235 13.8904 12.4235C14.0287 12.4235 14.1631 12.3518 14.2373 12.2235L15.1242 10.6876C15.2346 10.4964 15.1691 10.2516 14.9777 10.1411C14.7861 10.0306 14.5418 10.0962 14.4312 10.2876L13.5443 11.8235C13.434 12.0147 13.4994 12.2595 13.6908 12.37Z" fill="#171D19"/>
<path d="M16.6055 11.0844V12.8579C16.6055 13.0788 16.7846 13.2579 17.0055 13.2579C17.2264 13.2579 17.4055 13.0788 17.4055 12.8579V11.0844C17.4055 10.8635 17.2264 10.6844 17.0055 10.6844C16.7846 10.6844 16.6055 10.8635 16.6055 11.0844Z" fill="#171D19"/>
<path d="M19.7735 12.2235C19.8477 12.3518 19.9821 12.4235 20.1204 12.4235C20.1882 12.4235 20.2571 12.4063 20.32 12.37C20.5114 12.2595 20.5769 12.0147 20.4665 11.8235L19.5796 10.2876C19.4688 10.0962 19.2239 10.0306 19.0331 10.1411C18.8417 10.2516 18.7763 10.4964 18.8866 10.6876L19.7735 12.2235Z" fill="#171D19"/>
<path d="M20.664 9.20318L22.1999 10.0899C22.263 10.1262 22.3317 10.1434 22.3995 10.1434C22.5378 10.1434 22.6722 10.0717 22.7464 9.94341C22.8567 9.75201 22.7913 9.50748 22.5999 9.39693L21.064 8.51021C20.8718 8.39927 20.628 8.4651 20.5175 8.6567C20.4071 8.8481 20.4726 9.09263 20.664 9.20318Z" fill="#171D19"/>
<path d="M23.6342 6.62888C23.6342 6.40798 23.4551 6.22888 23.2342 6.22888H21.4605C21.2396 6.22888 21.0605 6.40798 21.0605 6.62888C21.0605 6.84978 21.2396 7.02888 21.4605 7.02888H23.2342C23.4551 7.02888 23.6342 6.84978 23.6342 6.62888Z" fill="#171D19"/>
<path d="M20.8644 4.80116C20.9321 4.80116 21.0009 4.78397 21.064 4.74764L22.5999 3.86092C22.7913 3.75038 22.8567 3.50585 22.7464 3.31444C22.6356 3.12303 22.3913 3.05741 22.1999 3.16795L20.664 4.05467C20.4726 4.16522 20.4071 4.40975 20.5175 4.60116C20.5917 4.72948 20.7261 4.80116 20.8644 4.80116Z" fill="#171D19"/>
<path d="M20.32 0.888057C20.1282 0.777119 19.8841 0.84333 19.7735 1.03454L18.8866 2.57048C18.7763 2.76169 18.8417 3.00641 19.0331 3.11696C19.096 3.15329 19.1649 3.17048 19.2327 3.17048C19.371 3.17048 19.5054 3.0988 19.5796 2.97048L20.4665 1.43454C20.5769 1.24333 20.5114 0.998603 20.32 0.888057Z" fill="#171D19"/>
<path d="M32.6611 10.8436C31.7094 10.71 30.8776 10.7802 30.1707 11.0472C30.1008 10.2018 29.7544 8.73406 28.2949 7.6032C28.1508 7.49148 27.9492 7.49148 27.805 7.6032C26.3456 8.73391 25.9991 10.2014 25.9291 11.0469C25.2221 10.78 24.3904 10.7098 23.4388 10.8436C23.2414 10.8714 23.0945 11.0403 23.0945 11.2397C23.0945 13.838 25.1043 15.9755 27.6509 16.1794V17.8572C24.7195 18.6387 20.9635 19.9588 16.9976 22.1748C13.0316 19.962 9.28407 18.6402 6.35663 17.8585V16.1792C8.90214 15.9741 10.9109 13.8372 10.9109 11.2397C10.9109 11.0403 10.7641 10.8714 10.5666 10.8436C9.61501 10.71 8.78324 10.7802 8.07638 11.0471C8.00641 10.2017 7.65993 8.73401 6.20039 7.6032C6.05624 7.49148 5.85468 7.49148 5.71054 7.6032C4.25122 8.73393 3.90473 10.2015 3.83474 11.047C3.12737 10.7798 2.29526 10.7093 1.34434 10.8436C1.14687 10.8714 1 11.0403 1 11.2397C1 13.838 3.00996 15.9755 5.55664 16.1794V17.6529C3.77236 17.212 2.34905 16.9781 1.45762 16.861C1.23633 16.8325 1.0375 16.9864 1.00879 17.2055C0.980078 17.4247 1.13437 17.6255 1.35332 17.6544C5.0166 18.1354 17.7562 20.5827 27.889 31.867C27.9681 31.9551 28.0771 31.9999 28.1869 31.9999C28.282 31.9999 28.3775 31.9661 28.4539 31.8975C28.6183 31.7499 28.632 31.4969 28.4843 31.3327C27.6467 30.3998 26.7903 29.5322 25.9239 28.7143C28.0882 27.5911 30.3126 26.7192 32.7113 26.0602C32.9244 26.0016 33.0496 25.7815 32.9912 25.5686C32.9326 25.3555 32.7121 25.2292 32.4996 25.2887C29.9519 25.9886 27.5959 26.9216 25.3015 28.1355C24.2604 27.1897 23.206 26.3226 22.1481 25.5264C26.3231 23.3378 30.17 22.164 32.6978 21.5631C32.9127 21.5122 33.0455 21.2965 32.9943 21.0815C32.9433 20.8665 32.7271 20.7325 32.5127 20.785C29.8714 21.4128 25.8156 22.6535 21.4365 24.9972C20.2243 24.122 19.0125 23.3433 17.8155 22.6427C24.4245 19.044 30.3683 17.9549 32.6576 17.6544C32.8765 17.6255 33.0308 17.4247 33.0021 17.2055C32.9732 16.9864 32.7724 16.8329 32.5533 16.861C31.6672 16.9774 30.2433 17.2091 28.4509 17.6515V16.1792C30.9966 15.9745 33.0054 13.8372 33.0054 11.2397C33.0054 11.0403 32.8586 10.8714 32.6611 10.8436ZM10.0959 11.5956C9.92597 13.5885 8.34335 15.1846 6.35663 15.376V15.086C6.35663 15.068 6.37636 13.2856 7.53749 12.2796C8.16366 11.7374 9.02245 11.5075 10.0959 11.5956ZM5.95566 8.44011C7.20773 9.56435 7.30097 10.9747 7.29238 11.4619C7.19511 11.5303 7.09909 11.6007 7.00859 11.6794C6.50117 12.1208 6.17089 12.6645 5.95624 13.187C5.74121 12.6645 5.41074 12.1208 4.90312 11.6794C4.81262 11.6007 4.71657 11.5305 4.61933 11.4621C4.61372 10.976 4.71323 9.55798 5.95566 8.44011ZM1.81504 11.5956C2.88906 11.5085 3.74746 11.7372 4.37422 12.2798C5.53593 13.2856 5.55664 15.0676 5.55664 15.0854V15.3762C3.56875 15.186 1.98496 13.5893 1.81504 11.5956ZM23.9095 11.5956C24.983 11.5079 25.8422 11.7372 26.4685 12.2798C27.6302 13.2854 27.6509 15.0676 27.6509 15.0854V15.3762C25.6631 15.186 24.0795 13.5893 23.9095 11.5956ZM28.0506 13.187C27.8355 12.6645 27.505 12.1208 26.9974 11.6794C26.9067 11.6005 26.8105 11.53 26.713 11.4615C26.7045 10.9736 26.7983 9.56382 28.05 8.43992C29.3022 9.56433 29.3953 10.975 29.3867 11.4621C29.2894 11.5306 29.1934 11.6009 29.1029 11.6796C28.5955 12.1208 28.2652 12.6645 28.0506 13.187ZM28.4509 15.376V15.0854C28.4509 15.0676 28.4636 13.2958 29.6279 12.2831C30.2545 11.7382 31.1142 11.5081 32.1904 11.5956C32.0205 13.5887 30.4379 15.1848 28.4509 15.376Z" fill="#171D19"/>
</g>
<defs>
<clipPath id="clip0_201_8786">
<rect width="32" height="32" fill="white" transform="translate(0.5)"/>
</clipPath>
</defs>
</svg>
