<svg width="33" height="32" viewBox="0 0 33 32" fill="none" xmlns="http://www.w3.org/2000/svg">
<g clip-path="url(#clip0_201_8621)">
<mask id="mask0_201_8621" style="mask-type:luminance" maskUnits="userSpaceOnUse" x="0" y="0" width="33" height="32">
<path d="M0.5 1.90735e-06H32.5V32H0.5V1.90735e-06Z" fill="white"/>
</mask>
<g mask="url(#mask0_201_8621)">
<path d="M0.96875 26.0411H32.0312" stroke="#171D19" stroke-miterlimit="10" stroke-linecap="round" stroke-linejoin="round"/>
<path d="M1.9707 26.0411L8.51002 17.6335C8.7897 17.2738 9.27689 17.1481 9.6957 17.3276L12.4919 18.526L14.8426 16.5671C15.2203 16.2523 15.7706 16.2581 16.1416 16.5807L27.0211 26.0411" stroke="#171D19" stroke-miterlimit="10" stroke-linecap="round" stroke-linejoin="round"/>
<path d="M10.0488 17.4479L15.7995 10.3701C16.1741 9.90901 16.8655 9.87332 17.2857 10.2934L21.5101 14.518L22.6843 13.9309C23.1526 13.6968 23.7222 13.8626 23.9916 14.3116L31.0293 26.0411" stroke="#171D19" stroke-miterlimit="10" stroke-linecap="round" stroke-linejoin="round"/>
<path d="M12.4922 18.526L15.9992 26.0411" stroke="#171D19" stroke-miterlimit="10" stroke-linecap="round" stroke-linejoin="round"/>
<path d="M20.6344 17.512L19.9653 19.7994" stroke="#171D19" stroke-miterlimit="10" stroke-linecap="round" stroke-linejoin="round"/>
<path d="M21.5102 14.518L21.21 15.5446" stroke="#171D19" stroke-miterlimit="10" stroke-linecap="round" stroke-linejoin="round"/>
<path d="M5.979 26.0411L8.48407 21.5321" stroke="#171D19" stroke-miterlimit="10" stroke-linecap="round" stroke-linejoin="round"/>
</g>
<path d="M30 5.5C30 6.88073 28.8807 8 27.5 8C26.1193 8 25 6.88073 25 5.5C25 4.11927 26.1193 3 27.5 3C28.8807 3 30 4.11927 30 5.5Z" stroke="#171D19" stroke-miterlimit="10" stroke-linecap="round" stroke-linejoin="round"/>
</g>
<defs>
<clipPath id="clip0_201_8621">
<rect width="32" height="32" fill="white" transform="translate(0.5)"/>
</clipPath>
</defs>
</svg>
